<?xml version="1.0" encoding="utf-8"?>
<!-- Generator: Adobe Illustrator 16.0.0, SVG Export Plug-In . SVG Version: 6.00 Build 0)  -->
<!DOCTYPE svg PUBLIC "-//W3C//DTD SVG 1.1//EN" "http://www.w3.org/Graphics/SVG/1.1/DTD/svg11.dtd">
<svg version="1.1" id="Layer_2" xmlns="http://www.w3.org/2000/svg" xmlns:xlink="http://www.w3.org/1999/xlink" x="0px" y="0px"
	 width="100px" height="100px" viewBox="0 0 100 100" enable-background="new 0 0 100 100" xml:space="preserve">
<path fill="#2F555A" d="M17.964,62.238c-2.469-1.728-5.76-4.52-10.142-9.256c1.753,13.531,9.4,25.207,20.291,32.37
	c1.171-1.61,2.646-3.89,3.718-6.416C25.745,74.84,20.9,69.048,17.964,62.238z"/>
<path fill="#2F555A" d="M53.258,1.209c-16.497,0-30.954,8.72-39.026,21.799c1.031,1.163,2.936,3.008,5.816,4.717
	c6.66-11.424,19.033-19.107,33.21-19.107c21.221,0,38.423,17.202,38.423,38.423c0,15.481-9.162,28.816-22.355,34.9
	c-1.691,2.489-4.935,6.542-10.268,10.553C81.629,89.643,99.09,70.387,99.09,47.041C99.09,21.729,78.57,1.209,53.258,1.209z"/>
<path fill="#2F555A" d="M7.038,23.875c12.788,11.796,36.146,28.786,70.826,23.188c0,0,0.2,44.453-49.859,52.062
	c0,0,32.238-14.817,34.642-42.851c0,0-15.418,1.752-36.243-10.413C8.104,35.172,7.038,23.875,7.038,23.875z"/>
<path fill="#2F555A" d="M2.069,35.671C5.051,40.099,21.678,61.5,54.662,61.5c0,0-5.693,22.697-25.664,31.372
	c0,0,11.066-13.379,13.607-24.313C42.605,68.559,12.732,62.511,2.069,35.671L2.069,35.671z"/>
<path fill="#2F555A" d="M48.324,41.579c3.931,1.101,21.151,3.224,29.958,0c0,0,0.55-8.335,7.784-7.234c0,0-6.684-4.639-17.535-4.639
	C57.681,29.706,48.324,41.579,48.324,41.579z"/>
</svg>
