<?xml version="1.0" encoding="utf-8"?>
<!-- Generator: Adobe Illustrator 16.0.0, SVG Export Plug-In . SVG Version: 6.00 Build 0)  -->
<!DOCTYPE svg PUBLIC "-//W3C//DTD SVG 1.1//EN" "http://www.w3.org/Graphics/SVG/1.1/DTD/svg11.dtd">
<svg version="1.1" id="Layer_2" xmlns="http://www.w3.org/2000/svg" xmlns:xlink="http://www.w3.org/1999/xlink" x="0px" y="0px"
	 width="100px" height="100px" viewBox="0 0 100 100" enable-background="new 0 0 100 100" xml:space="preserve">
<path fill="#DCC4BA" d="M17.964,62.238c-2.469-1.729-5.76-4.521-10.142-9.256c1.753,13.531,9.4,25.207,20.291,32.369
	c1.171-1.609,2.646-3.891,3.718-6.416C25.745,74.84,20.9,69.048,17.964,62.238z"/>
<path fill="#DCC4BA" d="M53.258,1.209c-16.497,0-30.954,8.72-39.026,21.799c1.031,1.163,2.936,3.008,5.816,4.717
	c6.66-11.424,19.033-19.107,33.21-19.107c21.221,0,38.424,17.202,38.424,38.423c0,15.48-9.162,28.816-22.354,34.9
	c-1.691,2.488-4.937,6.541-10.269,10.553c22.57-2.852,40.031-22.107,40.031-45.453C99.09,21.729,78.57,1.209,53.258,1.209z"/>
<path fill="#DCC4BA" d="M7.038,23.875c12.788,11.796,36.146,28.786,70.825,23.188c0,0,0.201,44.453-49.858,52.062
	c0,0,32.238-14.816,34.642-42.852c0,0-15.417,1.752-36.243-10.414C8.104,35.172,7.038,23.875,7.038,23.875z"/>
<path fill="#DCC4BA" d="M2.069,35.671C5.051,40.099,21.678,61.5,54.662,61.5c0,0-5.693,22.697-25.664,31.372
	c0,0,11.066-13.379,13.607-24.313C42.605,68.559,12.732,62.511,2.069,35.671L2.069,35.671z"/>
<path fill="#DCC4BA" d="M48.324,41.579c3.931,1.101,21.15,3.224,29.958,0c0,0,0.55-8.335,7.784-7.234c0,0-6.686-4.639-17.535-4.639
	S48.324,41.579,48.324,41.579z"/>
</svg>
